<?xml version="1.0" encoding="utf-8"?>
<!-- Generator: Adobe Illustrator 15.1.0, SVG Export Plug-In . SVG Version: 6.00 Build 0)  -->
<!DOCTYPE svg PUBLIC "-//W3C//DTD SVG 1.1//EN" "http://www.w3.org/Graphics/SVG/1.1/DTD/svg11.dtd">
<svg version="1.1" id="Layer_1" xmlns="http://www.w3.org/2000/svg" xmlns:xlink="http://www.w3.org/1999/xlink" x="0px" y="0px"
	 width="100%" height="100%" viewBox="0 0 283.46 283.46" enable-background="new 0 0 283.46 283.46" xml:space="preserve">
<path fill="#010202" d="M180.183,213.808c0.994-2.254,2.497-4.357,4.164-6.206c-1.888-0.981-3.809-1.932-5.795-2.817
	c18.072-20.466,39.149-39.591,45.784-62.853c-11.028,9.756-21.77,16.983-32.229,21.678c17.253-20.264,25.441-43.085,24.572-68.483
	c-5.937,18.898-16.787,32.81-32.559,41.726c21.071-23.384,26.817-32.558,28.097-52.405c1.285-19.854-1.897-50.398-32.351-71.562
	c12.926,16.94,14.707,32.926-3.011,49.462c6.714-13.684,3.936-22.797-8.305-29.664c6.909,11.879-2.081,41.689-26.634,60.643
	c5.226-11.175-7.473-24.761-16.806-25.337c11.273,11.39,9.877,16.842,6.567,20.551c-3.311,3.721-8.543,5.698-14.535,9.07
	c-0.82-3.893-5.214-8.036-13.164-12.424c2.295,6.689,1.989,12.932-0.899,18.727c-4.437-3.433-9.37-6.45-14.811-9.057
	c3.758,8.556,1.934,11.267-0.22,13.133c-2.161,1.867-4.651,2.889-7.473,5.435s-5.967,6.634-8.574,14.963
	c-2.613,8.335-4.682,20.913,1.512,34.028c-5.912-2.816-8.036-17.534-6.622-25.613c-7.663,12.632-7.815,19.884-2.926,28.929
	c3.728,6.873,10.374,14.773,17.987,41.371c-0.104,0.053-0.203,0.112-0.307,0.166c0.911,2.348,1.211,4.82,2.175,7.151
	c0.011,0.027,0.017,0.056,0.028,0.083c0.494-0.262,0.969-0.541,1.471-0.797c3.084-1.579,6.199-2.962,9.418-4.186
	c7.491,10.043,11.867,18.996,16.114,27.692l0.184,0.374c6.548,13.402,12.735,26.064,21.456,31.328l0.704,0.422l0.771,0.257
	c0.832,0.275,1.695,0.423,2.576,0.423c5.899,0,8.782-4.621,17.319-18.33c5.766-9.26,13.666-21.934,23.171-33.684
	c0.792-0.979,1.635-1.994,2.507-3.029C179.702,214.558,179.916,214.164,180.183,213.808z"/>
</svg>
